<svg xmlns="http://www.w3.org/2000/svg" fill="none" viewBox="0 0 16 16" id="Home-1--Streamline-Plump-Remix" height="16" width="16"><desc>Home 1 Streamline Icon: https://streamlinehq.com</desc><g id="home-1--home-house-roof-shelter"><path id="Union" fill="#000000" fill-rule="evenodd" d="M9.2091 0.7565566666666667c-0.7695 -0.34207666666666664 -1.6486666666666665 -0.34207666666666664 -2.4181333333333335 0C4.300366666666666 1.86376 2.4171466666666666 3.314913333333333 1.4420533333333332 4.1546c-0.6281566666666667 0.5408999999999999 -0.9660233333333333 1.3092333333333332 -1.0076133333333332 2.1034333333333333C0.38875666666666664 7.1304 0.3333333333333333 8.4964 0.3333333333333333 9.992233333333333c0 1.1507999999999998 0.03280333333333333 2.260333333333333 0.06866333333333333 3.1298999999999997 0.05566333333333333 1.3497666666666666 1.1310166666666666 2.4189666666666665 2.4806733333333333 2.4650999999999996 1.1607633333333331 0.03966666666666666 2.879863333333333 0.07926666666666667 5.1173633333333335 0.07926666666666667 2.2374666666666663 0 3.9565333333333332 -0.039599999999999996 5.1173 -0.07926666666666667 1.3497 -0.04613333333333333 2.4250333333333334 -1.1153666666666666 2.4806999999999997 -2.4651666666666667 0.03583333333333333 -0.8695333333333333 0.06863333333333332 -1.9790333333333332 0.06863333333333332 -3.129833333333333 0 -1.4958 -0.05539999999999999 -2.8617999999999997 -0.10106666666666667 -3.734166666666667 -0.04156666666666667 -0.7942 -0.3794666666666667 -1.5625666666666667 -1.0076333333333332 -2.1035 -0.9751 -0.83968 -2.8583 -2.2908166666666663 -5.348866666666667 -3.3980099999999998Zm-1.8765 1.2183666666666666c0.42466666666666664 -0.18878666666666666 0.9101999999999999 -0.18878666666666666 1.3348666666666666 0C11 3.011863333333333 12.772966666666665 4.377 13.687933333333334 5.164933333333333c0.3270666666666666 0.28159999999999996 0.5217666666666666 0.6971333333333334 0.5461666666666667 1.1628333333333334 0.044899999999999995 0.8578666666666666 0.09923333333333334 2.1992666666666665 0.09923333333333334 3.6644666666666663 0 1.1270666666666667 -0.03216666666666666 2.2173 -0.0675 3.0749 -0.026966666666666667 0.6539999999999999 -0.5424333333333333 1.1652666666666667 -1.1940333333333333 1.1875333333333333 -1.1461333333333332 0.03916666666666666 -2.850033333333333 0.07849999999999999 -5.071766666666666 0.07849999999999999 -2.2218 0 -3.9256666666666664 -0.03933333333333333 -5.071816666666667 -0.07849999999999999 -0.6515933333333332 -0.022266666666666664 -1.16705 -0.5335 -1.1940166666666667 -1.1875C1.69883 12.209533333333333 1.6666666666666665 11.119299999999999 1.6666666666666665 9.992233333333333c0 -1.4652333333333332 0.05436 -2.8066 0.09928333333333333 -3.6644666666666663 0.024386666666666668 -0.4657 0.21910333333333332 -0.8812 0.5461366666666666 -1.1628333333333334C3.2270633333333336 4.377033333333333 5 3.011873333333333 7.3326 1.9749233333333331ZM5.333333333333333 11.496233333333333c-0.4602333333333333 0 -0.8333333333333333 0.3731 -0.8333333333333333 0.8333333333333333s0.3731 0.8333333333333333 0.8333333333333333 0.8333333333333333h5.333333333333333c0.4602333333333333 0 0.8333333333333333 -0.3731 0.8333333333333333 -0.8333333333333333s-0.3731 -0.8333333333333333 -0.8333333333333333 -0.8333333333333333H5.333333333333333Z" clip-rule="evenodd" stroke-width="0.3333"></path></g></svg>