<svg viewBox="0 0 16 16" fill="#000000" xmlns="http://www.w3.org/2000/svg" id="Phone-Line--Streamline-Remix" height="16" width="16"><desc>Phone Line Streamline Icon: https://streamlinehq.com</desc><path d="M6.243706666666666 7.1213999999999995c0.6242933333333334 1.0977999999999999 1.5370933333333332 2.0105999999999997 2.6348933333333333 2.6348666666666665l0.5896666666666666 -0.8255333333333332c0.19606666666666664 -0.2744 0.5661333333333333 -0.35919999999999996 0.8621333333333332 -0.19753333333333334 0.9378666666666666 0.5123333333333333 1.9743333333333333 0.8236666666666667 3.0555333333333334 0.9092666666666666 0.34673333333333334 0.027466666666666667 0.6140666666666666 0.31679999999999997 0.6140666666666666 0.6646v2.9751999999999996c0 0.3418 -0.2585333333333333 0.6282 -0.5985333333333334 0.6631333333333334 -0.3532666666666667 0.03633333333333333 -0.7096666666666667 0.054599999999999996 -1.0681333333333334 0.054599999999999996C6.626393333333334 14 2 9.3736 2 3.6666666666666665c0 -0.3584866666666667 0.018279999999999998 -0.7148599999999999 0.054593333333333334 -1.06816C2.0895333333333332 2.2584999999999997 2.37596 2 2.7177666666666664 2h2.97518c0.3477866666666667 0 0.6371399999999999 0.26736 0.6645866666666667 0.6140599999999999 0.08558 1.0811933333333332 0.39693333333333336 2.1177 0.9092666666666666 3.0555666666666665 0.16166666666666665 0.2959733333333333 0.07686666666666667 0.6660666666666666 -0.19753333333333334 0.8620866666666666l-0.82556 0.5896866666666667Zm-1.6808733333333334 -0.43793333333333334L5.829466666666666 5.778726666666666C5.470313333333333 5.003426666666666 5.224186666666666 4.18122 5.098179999999999 3.333333333333333h-1.7588C3.335353333333333 3.444213333333333 3.333333333333333 3.5553333333333335 3.333333333333333 3.6666666666666665 3.333333333333333 8.6372 7.3628 12.666666666666666 12.333333333333332 12.666666666666666c0.11133333333333334 0 0.22246666666666665 -0.002 0.3333333333333333 -0.006066666666666666v-1.7588c-0.8478666666666667 -0.126 -1.6700666666666666 -0.3721333333333333 -2.4454 -0.7312666666666666l-0.9047333333333333 1.2666666666666666c-0.366 -0.1422 -0.7194666666666666 -0.3095333333333333 -1.0582666666666665 -0.4998l-0.03873333333333333 -0.022066666666666665c-1.3064 -0.7428666666666667 -2.391973333333333 -1.8284666666666667 -3.1348666666666665 -3.1348666666666665l-0.022039999999999997 -0.03873333333333333c-0.19029999999999997 -0.3388 -0.3576 -0.6922666666666666 -0.4997933333333333 -1.0582666666666665Z" stroke-width="0.6667"></path></svg>