<svg viewBox="0 0 16 16" fill="#000000" xmlns="http://www.w3.org/2000/svg" id="Group-Line--Streamline-Remix" height="16" width="16"><desc>Group Line Streamline Icon: https://streamlinehq.com</desc><path d="M1.3333333333333333 14.666666666666666c0 -2.9455333333333336 2.387813333333333 -5.333333333333333 5.333333333333333 -5.333333333333333 2.9455333333333336 0 5.333333333333333 2.3878 5.333333333333333 5.333333333333333h-1.3333333333333333c0 -2.209133333333333 -1.7908666666666666 -4 -4 -4 -2.2091399999999997 0 -4 1.7908666666666666 -4 4H1.3333333333333333Zm5.333333333333333 -6c-2.21 0 -4 -1.79 -4 -4s1.79 -4 4 -4 4 1.79 4 4 -1.79 4 -4 4Zm0 -1.3333333333333333c1.4733333333333332 0 2.6666666666666665 -1.1933333333333334 2.6666666666666665 -2.6666666666666665s-1.1933333333333334 -2.6666666666666665 -2.6666666666666665 -2.6666666666666665 -2.6666666666666665 1.1933333333333334 -2.6666666666666665 2.6666666666666665 1.1933333333333334 2.6666666666666665 2.6666666666666665 2.6666666666666665Zm5.522466666666666 2.4685333333333332C14.042933333333332 10.6374 15.333333333333332 12.501333333333331 15.333333333333332 14.666666666666666h-1.3333333333333333c0 -1.6239999999999999 -0.9678 -3.021933333333333 -2.358133333333333 -3.6486l0.5472666666666666 -1.2162Zm-0.4583333333333333 -7.526393333333333C13.062933333333334 2.8246866666666666 14 4.13574 14 5.666666666666666c0 1.9134666666666666 -1.4638666666666666 3.4834666666666667 -3.333333333333333 3.651733333333333v-1.3419999999999999c1.1311333333333333 -0.1616 2 -1.1337333333333333 2 -2.309733333333333 0 -0.9204333333333332 -0.5322666666666667 -1.71598 -1.306 -2.0957666666666666l0.3701333333333333 -1.2954266666666667Z" stroke-width="0.6667"></path></svg>