<svg viewBox="0 0 16 16" fill="#000000" xmlns="http://www.w3.org/2000/svg" id="Map-Pin-Line--Streamline-Remix" height="16" width="16"><desc>Map Pin Line Streamline Icon: https://streamlinehq.com</desc><path d="m8 13.933 3.2998 -3.2998666666666665c1.8224666666666665 -1.8224 1.8224666666666665 -4.777186666666666 0 -6.599633333333333 -1.8224 -1.8224466666666665 -4.777186666666666 -1.8224466666666665 -6.599633333333333 0s-1.8224466666666665 4.777233333333333 0 6.599633333333333L8 13.933Zm0 1.8855999999999997L3.7573600000000003 11.576c-2.3431466666666667 -2.3432 -2.3431466666666667 -6.1421600000000005 0 -8.485306666666666 2.3431466666666667 -2.3431466666666667 6.142106666666667 -2.3431466666666667 8.485306666666666 0 2.3431333333333333 2.3431466666666667 2.3431333333333333 6.142106666666667 0 8.485306666666666L8 15.8186ZM8 8.666666666666666c0.7363999999999999 0 1.3333333333333333 -0.5969333333333333 1.3333333333333333 -1.3333333333333333 0 -0.73638 -0.5969333333333333 -1.3333333333333333 -1.3333333333333333 -1.3333333333333333s-1.3333333333333333 0.5969533333333332 -1.3333333333333333 1.3333333333333333c0 0.7363999999999999 0.5969333333333333 1.3333333333333333 1.3333333333333333 1.3333333333333333Zm0 1.3333333333333333c-1.47276 0 -2.6666666666666665 -1.1939333333333333 -2.6666666666666665 -2.6666666666666665 0 -1.47276 1.1939066666666664 -2.6666666666666665 2.6666666666666665 -2.6666666666666665 1.4727333333333332 0 2.6666666666666665 1.1939066666666664 2.6666666666666665 2.6666666666666665 0 1.4727333333333332 -1.1939333333333333 2.6666666666666665 -2.6666666666666665 2.6666666666666665Z" stroke-width="0.6667"></path></svg>