<svg xmlns="http://www.w3.org/2000/svg" viewBox="0 0 16 16" id="Map-Location--Streamline-Font-Awesome" height="16" width="16"><desc>Map Location Streamline Icon: https://streamlinehq.com</desc><!--! Font Awesome Free 6.5.2 by @fontawesome - https://fontawesome.com License - https://fontawesome.com/license/free (Icons: CC BY 4.0, Fonts: SIL OFL 1.1, Code: MIT License) Copyright 2024 Fonticons, Inc.--><path d="M8.402888888888889 9.627366666666665c0.8738333333333332 -1.091611111111111 2.8637777777777775 -3.7403333333333326 2.8637777777777775 -5.226666666666667 0 -1.8048333333333333 -1.461833333333333 -3.266666666666666 -3.266666666666666 -3.266666666666666s-3.266666666666666 1.461833333333333 -3.266666666666666 3.266666666666666c0 1.4863333333333333 1.9899444444444445 4.135055555555555 2.8637777777777775 5.226666666666667 0.2096111111111111 0.2613333333333333 0.5988888888888888 0.2613333333333333 0.8057777777777777 0Zm3.0815555555555556 5.1994444444444445 3.9445 -1.5788888888888888c0.24772222222222218 -0.09799999999999999 0.4110555555555555 -0.34027777777777773 0.4110555555555555 -0.6070555555555555v-7.369055555555555c0 -0.46277777777777773 -0.46549999999999997 -0.7785555555555554 -0.895611111111111 -0.6070555555555555l-3.1577777777777776 1.263111111111111c-0.01361111111111111 0.03266666666666666 -0.02722222222222222 0.06805555555555556 -0.04083333333333333 0.10072222222222221 -0.07894444444444444 0.1851111111111111 -0.16605555555555554 0.3729444444444444 -0.2613333333333333 0.5607777777777777v8.237444444444444ZM0.5710555555555555 6.232755555555555c-0.24772222222222218 0.10072222222222221 -0.4110555555555555 0.34027777777777773 -0.4110555555555555 0.6070555555555555v7.371777777777778c0 0.46277777777777773 0.46549999999999997 0.7785555555555554 0.895611111111111 0.6070555555555555l3.4599444444444445 -1.385611111111111v-6.843666666666667c-0.09527777777777778 -0.18783333333333332 -0.18238888888888888 -0.37566666666666665 -0.2613333333333333 -0.5607777777777777 -0.15244444444444444 -0.35933333333333334 -0.2831111111111111 -0.7458888888888888 -0.34844444444444445 -1.1297222222222223l-3.337444444444444 1.333888888888889Zm10.042277777777777 1.8429444444444445c-0.5580555555555555 0.8520555555555555 -1.1515 1.6224444444444444 -1.5298888888888889 2.096111111111111 -0.5580555555555555 0.6968888888888889 -1.6088333333333331 0.6968888888888889 -2.166888888888889 0 -0.3783888888888889 -0.4736666666666666 -0.9718333333333332 -1.2440555555555555 -1.5298888888888889 -2.096111111111111v5.292l5.226666666666667 1.4945v-6.786499999999999Z" fill="#ffffff" stroke-width="0.0278"></path></svg>